<svg width="20" height="20" viewBox="0 0 20 20" fill="none" xmlns="http://www.w3.org/2000/svg">
<path opacity="0.3" d="M16.6667 16.6666H3.33332C3.03457 16.6666 2.75957 16.5071 2.61082 16.2483C2.46249 15.9896 2.46332 15.6712 2.61374 15.4133L9.28041 3.74665C9.42957 3.49081 9.70374 3.33331 9.99999 3.33331C10.2962 3.33331 10.5704 3.49081 10.72 3.74665L17.3867 15.4133C17.5371 15.6712 17.5379 15.9896 17.3896 16.2483C17.2412 16.5071 16.965 16.6666 16.6667 16.6666Z" fill="#DF3030"/>
<path d="M9.16675 14.2258C9.16675 14.1137 9.18633 14.0113 9.22633 13.915C9.2655 13.82 9.32175 13.7375 9.39425 13.6683C9.4655 13.5983 9.55341 13.5437 9.65425 13.5046C9.75591 13.4662 9.87008 13.4458 9.99758 13.4458C10.1251 13.4458 10.2401 13.4662 10.3426 13.5046C10.4467 13.5437 10.5347 13.5983 10.6059 13.6683C10.6788 13.7375 10.7351 13.82 10.7738 13.915C10.8138 14.0113 10.8334 14.1137 10.8334 14.2258C10.8334 14.3383 10.8138 14.4408 10.7738 14.5342C10.7347 14.6279 10.6784 14.7088 10.6059 14.7792C10.5347 14.8483 10.4467 14.9025 10.3426 14.9425C10.2401 14.9808 10.1251 15 9.99758 15C9.86966 15 9.75591 14.9808 9.65425 14.9421C9.55341 14.9021 9.4655 14.8479 9.39425 14.7788C9.32133 14.7083 9.26508 14.6275 9.22633 14.5338C9.18633 14.4404 9.16675 14.3379 9.16675 14.2258ZM10.6167 12.5H9.378L9.20258 7.5H10.7917L10.6167 12.5Z" fill="#B11B1B"/>
</svg>
