<svg width="20" height="20" viewBox="0 0 20 20" fill="none" xmlns="http://www.w3.org/2000/svg">
<path opacity="0.3" d="M18.3334 9.99996C18.3334 14.602 14.6022 18.3333 10.0001 18.3333C5.398 18.3333 1.66675 14.602 1.66675 9.99996C1.66675 5.39788 5.398 1.66663 10.0001 1.66663C14.6022 1.66663 18.3334 5.39788 18.3334 9.99996Z" fill="#003CB6"/>
<path d="M9.16659 9.16671H10.8333V13.75H9.16659V9.16671ZM11.0416 6.87504C11.0416 7.44962 10.5745 7.91671 9.99992 7.91671C9.42534 7.91671 8.95825 7.44962 8.95825 6.87504C8.95825 6.30046 9.42534 5.83337 9.99992 5.83337C10.5745 5.83337 11.0416 6.30046 11.0416 6.87504Z" fill="#003CB6"/>
</svg>
