<svg width="20" height="20" viewBox="0 0 20 20" fill="none" xmlns="http://www.w3.org/2000/svg">
<path fill-rule="evenodd" clip-rule="evenodd" d="M10.0003 1.6665C6.78366 1.6665 4.16699 4.28317 4.16699 7.49984C4.16699 9.48317 5.15866 11.2248 6.66699 12.2832V14.1665C6.66699 14.6248 7.04199 14.9998 7.50033 14.9998H12.5003C12.9587 14.9998 13.3337 14.6248 13.3337 14.1665V12.2832C14.842 11.2248 15.8337 9.48317 15.8337 7.49984C15.8337 4.28317 13.217 1.6665 10.0003 1.6665ZM7.50033 17.4998C7.50033 17.9582 7.87533 18.3332 8.33366 18.3332H11.667C12.1253 18.3332 12.5003 17.9582 12.5003 17.4998V16.6665H7.50033V17.4998ZM11.667 11.4165L12.3753 10.9165C13.5003 10.1332 14.167 8.85817 14.167 7.49984C14.167 5.19984 12.3003 3.33317 10.0003 3.33317C7.70033 3.33317 5.83366 5.19984 5.83366 7.49984C5.83366 8.85817 6.50033 10.1332 7.62533 10.9165L8.33366 11.4165V13.3332H11.667V11.4165Z" fill="#464853"/>
</svg>
