<svg width="20" height="20" viewBox="0 0 20 20" fill="none" xmlns="http://www.w3.org/2000/svg">
<path d="M1.66671 9.99999C1.66671 5.39791 5.39796 1.66666 10 1.66666C14.6021 1.66666 18.3334 5.39791 18.3334 9.99999C18.3334 14.6021 14.6021 18.3333 10 18.3333C5.39796 18.3333 1.66671 14.6021 1.66671 9.99999Z" fill="#F4B43E"/>
<path d="M10.8333 10.8333H9.16663V6.25H10.8333L10.8333 10.8333ZM8.95829 13.125C8.95829 12.5504 9.42538 12.0833 9.99996 12.0833C10.5745 12.0833 11.0416 12.5504 11.0416 13.125C11.0416 13.6996 10.5745 14.1667 9.99996 14.1667C9.42538 14.1667 8.95829 13.6996 8.95829 13.125Z" fill="white"/>
</svg>
